<svg viewBox="0 0 120 40" fill="none" xmlns="http://www.w3.org/2000/svg">
<g clip-path="url(#clip0_276_938)">
<path d="M110.136 0H9.53291C9.16792 0 8.80773 0 8.43794 0C8.13058 0 7.82803 0.00960499 7.52067 0.0144075C6.84832 0.0240125 6.18077 0.0816424 5.51803 0.1921C4.85528 0.302557 4.21655 0.513867 3.61624 0.821227C3.02073 1.12859 2.47324 1.52719 1.9978 1.99784C1.52235 2.47329 1.12374 3.02077 0.821185 3.62108C0.518628 4.22139 0.307318 4.86013 0.196861 5.52287C0.0864032 6.18562 0.0239707 6.85316 0.0191682 7.52551C0.00956324 7.83287 0.00956324 8.14023 0.00476074 8.44759V31.562C0.00956324 31.8742 0.00956324 32.1719 0.0191682 32.4841C0.0287732 33.1564 0.0864032 33.824 0.196861 34.4867C0.307318 35.1495 0.518628 35.793 0.821185 36.3933C1.12374 36.9936 1.52235 37.5363 1.9978 38.007C2.46844 38.4824 3.01593 38.881 3.61624 39.1836C4.21655 39.4861 4.85528 39.7022 5.51803 39.8127C6.18077 39.9232 6.84832 39.9808 7.52067 39.9904C7.82803 39.9952 8.13539 40 8.43794 40C8.80293 40 9.16792 40 9.53291 40H110.131C110.491 40 110.856 40 111.216 40C111.519 40 111.836 40 112.138 39.9904C112.811 39.9808 113.478 39.9232 114.136 39.8127C114.799 39.6974 115.442 39.4861 116.043 39.1836C116.643 38.881 117.186 38.4824 117.661 38.007C118.137 37.5363 118.535 36.9888 118.843 36.3933C119.145 35.793 119.352 35.1495 119.462 34.4867C119.572 33.824 119.635 33.1564 119.649 32.4841C119.649 32.1719 119.649 31.8742 119.649 31.562C119.659 31.197 119.659 30.8368 119.659 30.467V9.53776C119.659 9.17277 119.659 8.80778 119.649 8.44759C119.649 8.14023 119.649 7.83287 119.649 7.52551C119.635 6.85316 119.577 6.18562 119.462 5.52287C119.352 4.86013 119.145 4.21659 118.843 3.62108C118.223 2.42046 117.248 1.44075 116.043 0.821227C115.442 0.51867 114.799 0.30736 114.136 0.1921C113.473 0.0816424 112.806 0.0240125 112.138 0.0144075C111.836 0.00960499 111.519 0.0048025 111.216 0C110.856 0 110.491 0 110.131 0L110.136 0Z" fill="#A6A6A6"/>
<path d="M8.44276 39.1259C8.1402 39.1259 7.84244 39.1259 7.53989 39.1163C6.91556 39.1067 6.29124 39.0539 5.67172 38.9531C5.09542 38.8522 4.53833 38.6697 4.01486 38.4056C3.49619 38.1414 3.02554 37.8004 2.61733 37.3874C2.20431 36.9792 1.85853 36.5086 1.5992 35.9899C1.33506 35.4664 1.15257 34.9093 1.05652 34.333C0.955666 33.7135 0.898036 33.0844 0.888431 32.4601C0.883628 32.2488 0.874023 31.5476 0.874023 31.5476V8.44279C0.874023 8.44279 0.883628 7.75123 0.888431 7.54952C0.898036 6.9204 0.950863 6.29607 1.05172 5.67655C1.14777 5.10025 1.33026 4.53836 1.5944 4.01489C1.85373 3.49622 2.19951 3.02557 2.60772 2.61736C3.02074 2.20435 3.49138 1.85857 4.01005 1.59443C4.52872 1.33029 5.08581 1.1478 5.66211 1.05175C6.28163 0.950894 6.91076 0.893264 7.53989 0.888461L8.44276 0.874054H111.211L112.124 0.888461C112.748 0.898066 113.368 0.950894 113.982 1.05175C114.563 1.1526 115.125 1.33509 115.654 1.59923C116.691 2.13231 117.536 2.98235 118.069 4.01969C118.329 4.53836 118.511 5.09545 118.602 5.66695C118.708 6.29127 118.766 6.9204 118.775 7.55433C118.775 7.83767 118.775 8.14023 118.775 8.44279C118.785 8.81738 118.785 9.17277 118.785 9.53296V30.4622C118.785 30.8272 118.785 31.1778 118.775 31.538C118.775 31.8646 118.775 32.1623 118.775 32.4697C118.766 33.0892 118.708 33.7087 118.602 34.3234C118.511 34.9045 118.329 35.4664 118.065 35.9947C117.8 36.5086 117.459 36.9744 117.051 37.3826C116.643 37.7956 116.172 38.1414 115.654 38.4056C115.13 38.6697 114.568 38.857 113.987 38.9531C113.368 39.0539 112.743 39.1067 112.119 39.1163C111.826 39.1211 111.519 39.1259 111.221 39.1259H110.136H8.44756H8.44276Z" fill="black"/>
<path d="M24.7664 20.3001C24.7904 18.6049 25.6789 17.0344 27.1244 16.146C26.2072 14.8397 24.728 14.0377 23.1336 13.9897C21.4527 13.812 19.8247 14.9934 18.9698 14.9934C18.115 14.9934 16.7799 14.0041 15.3631 14.0329C13.495 14.0953 11.7997 15.1279 10.892 16.7607C8.95661 20.108 10.4022 25.0306 12.2511 27.7344C13.178 29.0599 14.2634 30.5391 15.6801 30.4862C17.068 30.4286 17.5867 29.6026 19.258 29.6026C20.9292 29.6026 21.4047 30.4862 22.8502 30.4526C24.339 30.4286 25.2755 29.1223 26.1688 27.7824C26.8363 26.8363 27.3454 25.7942 27.6863 24.6896C25.919 23.9404 24.7712 22.2115 24.7664 20.2905V20.3001Z" fill="white"/>
<path d="M22.0385 12.2128C22.8502 11.2378 23.2488 9.98439 23.1527 8.72134C21.9137 8.851 20.7659 9.44171 19.9447 10.383C19.133 11.3051 18.72 12.5153 18.8017 13.7447C20.0599 13.7592 21.2509 13.1925 22.0385 12.2128Z" fill="white"/>
<path d="M42.3004 27.1389H37.5651L36.427 30.4959H34.4243L38.9098 18.0766H40.9941L45.4797 30.4959H43.4386L42.3052 27.1389H42.3004ZM38.055 25.5877H41.8058L39.9568 20.1417H39.904L38.055 25.5877Z" fill="white"/>
<path d="M55.1616 25.9719C55.1616 28.7862 53.6536 30.5919 51.382 30.5919C50.2054 30.6543 49.1008 30.0396 48.5341 29.0071H48.4909V33.4926H46.6323V21.4431H48.4333V22.9511H48.4669C49.0576 21.9282 50.167 21.3135 51.3484 21.3519C53.644 21.3519 55.1616 23.1672 55.1616 25.9719ZM53.2502 25.9719C53.2502 24.1373 52.3041 22.9319 50.8585 22.9319C49.413 22.9319 48.4813 24.1614 48.4813 25.9719C48.4813 27.7824 49.437 29.0167 50.8585 29.0167C52.2801 29.0167 53.2502 27.8209 53.2502 25.9719Z" fill="white"/>
<path d="M65.1218 25.9719C65.1218 28.7862 63.6138 30.5919 61.3422 30.5919C60.1656 30.6543 59.061 30.0396 58.4943 29.0071H58.4511V33.4926H56.5925V21.4431H58.3935V22.9511H58.4271C59.0178 21.9282 60.1272 21.3135 61.3086 21.3519C63.6042 21.3519 65.1218 23.1672 65.1218 25.9719ZM63.2104 25.9719C63.2104 24.1373 62.2643 22.9319 60.8187 22.9319C59.3732 22.9319 58.4415 24.1614 58.4415 25.9719C58.4415 27.7824 59.3972 29.0167 60.8187 29.0167C62.2403 29.0167 63.2104 27.8209 63.2104 25.9719Z" fill="white"/>
<path d="M71.711 27.0381C71.8502 28.2675 73.046 29.0791 74.6789 29.0791C76.3117 29.0791 77.3731 28.2723 77.3731 27.1581C77.3731 26.1928 76.6911 25.6165 75.0823 25.2227L73.4735 24.8337C71.1923 24.2814 70.1357 23.2153 70.1357 21.4864C70.1357 19.3445 72.0039 17.8701 74.6549 17.8701C77.3059 17.8701 79.078 19.3397 79.1404 21.4864H77.2626C77.1522 20.2473 76.1244 19.4981 74.6309 19.4981C73.1373 19.4981 72.1096 20.2569 72.1096 21.3567C72.1096 22.2356 72.7627 22.7494 74.3667 23.148L75.7354 23.4842C78.2856 24.0845 79.3421 25.1123 79.3421 26.9276C79.3421 29.252 77.4932 30.7072 74.5492 30.7072C71.7974 30.7072 69.934 29.2856 69.814 27.0381H71.7158H71.711Z" fill="white"/>
<path d="M83.3473 19.3012V21.4431H85.0666V22.9127H83.3473V27.9025C83.3473 28.6757 83.6931 29.0407 84.4471 29.0407C84.6536 29.0407 84.8553 29.0215 85.057 28.9975V30.4622C84.716 30.5247 84.3702 30.5535 84.0245 30.5487C82.1899 30.5487 81.4743 29.8619 81.4743 28.1042V22.9127H80.1584V21.4431H81.4743V19.3012H83.3425H83.3473Z" fill="white"/>
<path d="M86.0656 25.9719C86.0656 23.124 87.7416 21.3327 90.359 21.3327C92.9763 21.3327 94.6524 23.124 94.6524 25.9719C94.6524 28.8198 92.9907 30.6111 90.359 30.6111C87.7272 30.6111 86.0656 28.8294 86.0656 25.9719ZM92.7602 25.9719C92.7602 24.0173 91.867 22.8647 90.359 22.8647C88.851 22.8647 87.9577 24.0269 87.9577 25.9719C87.9577 27.9169 88.851 29.0791 90.359 29.0791C91.867 29.0791 92.7602 27.9361 92.7602 25.9719Z" fill="white"/>
<path d="M96.1843 21.4431H97.9564V22.9847H97.9997C98.2446 21.9906 99.1571 21.3087 100.175 21.3471C100.391 21.3471 100.603 21.3711 100.814 21.4143V23.1528C100.545 23.0712 100.262 23.0328 99.9783 23.0424C98.9458 22.9992 98.0717 23.806 98.0333 24.8385C98.0333 24.9346 98.0333 25.0306 98.0429 25.1267V30.4959H96.1843V21.4431Z" fill="white"/>
<path d="M109.382 27.8353C109.132 29.4777 107.533 30.6063 105.482 30.6063C102.85 30.6063 101.213 28.8438 101.213 26.0103C101.213 23.1768 102.855 21.3279 105.405 21.3279C107.955 21.3279 109.487 23.0472 109.487 25.7942V26.4329H103.095V26.5434C102.98 27.8401 103.94 28.9831 105.237 29.0983C105.333 29.1079 105.434 29.1079 105.53 29.1079C106.433 29.1944 107.283 28.6757 107.619 27.8353H109.382ZM103.1 25.1315H107.624C107.691 23.9308 106.774 22.9031 105.573 22.8359C105.516 22.8359 105.463 22.8359 105.405 22.8359C104.137 22.8263 103.105 23.8492 103.1 25.1123C103.1 25.1171 103.1 25.1267 103.1 25.1315Z" fill="white"/>
<path d="M37.8245 8.73095C39.2797 8.62529 40.5427 9.72026 40.6484 11.1754C40.6628 11.3483 40.658 11.5212 40.634 11.6941C40.634 13.6007 39.6015 14.6956 37.8245 14.6956H35.6682V8.73095H37.8245ZM36.5951 13.8552H37.7189C38.7514 13.9176 39.6399 13.13 39.7023 12.0927C39.7119 11.963 39.7023 11.8334 39.6879 11.7085C39.8272 10.6808 39.1116 9.72987 38.0791 9.59059C37.959 9.57619 37.8389 9.57138 37.7189 9.57619H36.5951V13.8552Z" fill="white"/>
<path d="M41.681 12.4433C41.5705 11.2715 42.4302 10.2293 43.602 10.1189C44.7738 10.0084 45.8159 10.8681 45.9264 12.0399C45.9408 12.1743 45.9408 12.3088 45.9264 12.4481C46.0416 13.6199 45.182 14.662 44.0102 14.7773C42.8384 14.8925 41.7962 14.0329 41.681 12.8611C41.6666 12.7218 41.6666 12.5873 41.681 12.4481V12.4433ZM45.0139 12.4433C45.0139 11.4684 44.5769 10.8969 43.8037 10.8969C43.0305 10.8969 42.5982 11.4684 42.5982 12.4433C42.5982 13.4182 43.0305 13.9945 43.8037 13.9945C44.5721 13.9945 45.0139 13.423 45.0139 12.4433Z" fill="white"/>
<path d="M51.574 14.6956H50.6519L49.7203 11.3771H49.6482L48.7213 14.6956H47.8089L46.5698 10.1909H47.4727L48.2795 13.6247H48.3467L49.2736 10.1909H50.1285L51.0554 13.6247H51.1274L51.9294 10.1909H52.8179L51.5836 14.6956H51.574Z" fill="white"/>
<path d="M53.8552 10.1957H54.7101V10.9113H54.7773C55.0078 10.383 55.5457 10.0612 56.122 10.1093C56.9288 10.0468 57.63 10.6519 57.6924 11.4588C57.702 11.5692 57.6924 11.6749 57.6828 11.7805V14.6956H56.7944V12.0014C56.7944 11.2763 56.4822 10.9161 55.8242 10.9161C55.2528 10.8873 54.7725 11.3291 54.7437 11.9006C54.7437 11.9534 54.7437 12.0062 54.7437 12.0591V14.6956H53.8552V10.1909V10.1957Z" fill="white"/>
<path d="M59.0947 8.43799H59.9832V14.7004H59.0947V8.43799Z" fill="white"/>
<path d="M61.2175 12.4433C61.107 11.2715 61.9667 10.2293 63.1385 10.1189C64.3103 10.0084 65.3524 10.8681 65.4629 12.0399C65.4773 12.1743 65.4773 12.3088 65.4629 12.4481C65.5781 13.6199 64.7185 14.662 63.5467 14.7773C62.3749 14.8925 61.3327 14.0329 61.2175 12.8611C61.2031 12.7218 61.2031 12.5873 61.2175 12.4481V12.4433ZM64.5504 12.4433C64.5504 11.4684 64.1134 10.8969 63.3402 10.8969C62.567 10.8969 62.1347 11.4684 62.1347 12.4433C62.1347 13.4182 62.567 13.9945 63.3402 13.9945C64.1086 13.9945 64.5504 13.423 64.5504 12.4433Z" fill="white"/>
<path d="M66.3993 13.423C66.3993 12.6114 67.0044 12.1455 68.0754 12.0783L69.2952 12.0062V11.6172C69.2952 11.1418 68.983 10.8729 68.3731 10.8729C67.8785 10.8729 67.5327 11.0553 67.4366 11.3723H66.577C66.6682 10.5991 67.3934 10.1045 68.4163 10.1045C69.5449 10.1045 70.1837 10.6663 70.1837 11.6172V14.6956H69.3288V14.0617H69.2568C68.9686 14.5228 68.45 14.7917 67.9025 14.7677C67.1533 14.8445 66.4857 14.3018 66.4089 13.5574C66.4089 13.5142 66.4041 13.4662 66.3993 13.423ZM69.2952 13.0388V12.6642L68.1954 12.7362C67.5759 12.7794 67.2926 12.9908 67.2926 13.3846C67.2926 13.7784 67.6431 14.0233 68.1282 14.0233C68.7093 14.0809 69.2328 13.6583 69.2904 13.0724C69.2904 13.0628 69.2904 13.0484 69.2904 13.0388H69.2952Z" fill="white"/>
<path d="M71.3459 12.4433C71.3459 11.0217 72.0759 10.1189 73.2141 10.1189C73.7904 10.0901 74.3283 10.4022 74.5972 10.9065H74.6645V8.43319H75.5529V14.6956H74.7029V13.9849H74.6309C74.3427 14.4891 73.7952 14.7917 73.2189 14.7725C72.0711 14.7725 71.3508 13.8696 71.3508 12.4433H71.3459ZM72.2632 12.4433C72.2632 13.399 72.7147 13.9753 73.4686 13.9753C74.2226 13.9753 74.6789 13.3942 74.6789 12.4481C74.6789 11.502 74.213 10.9161 73.4686 10.9161C72.7243 10.9161 72.2632 11.4924 72.2632 12.4433Z" fill="white"/>
<path d="M79.2316 12.4433C79.1212 11.2715 79.9808 10.2293 81.1526 10.1189C82.3244 10.0084 83.3666 10.8681 83.477 12.0399C83.4915 12.1743 83.4915 12.3088 83.477 12.4481C83.5923 13.6199 82.7327 14.662 81.5608 14.7773C80.389 14.8925 79.3469 14.0329 79.2316 12.8611C79.2172 12.7218 79.2172 12.5873 79.2316 12.4481V12.4433ZM82.5646 12.4433C82.5646 11.4684 82.1275 10.8969 81.3543 10.8969C80.5811 10.8969 80.1489 11.4684 80.1489 12.4433C80.1489 13.4182 80.5811 13.9945 81.3543 13.9945C82.1227 13.9945 82.5646 13.423 82.5646 12.4433Z" fill="white"/>
<path d="M84.6681 10.1957H85.5229V10.9113H85.5902C85.8207 10.383 86.3586 10.0612 86.9349 10.1093C87.7417 10.0468 88.4428 10.6519 88.5053 11.4588C88.5149 11.5692 88.5053 11.6749 88.4957 11.7805V14.6956H87.6072V12.0014C87.6072 11.2763 87.2951 10.9161 86.6371 10.9161C86.0656 10.8873 85.5854 11.3291 85.5565 11.9006C85.5565 11.9534 85.5565 12.0062 85.5565 12.0591V14.6956H84.6681V10.1909V10.1957Z" fill="white"/>
<path d="M93.5143 9.07192V10.2149H94.4892V10.9641H93.5143V13.2789C93.5143 13.7496 93.7064 13.9561 94.153 13.9561C94.2683 13.9561 94.3788 13.9465 94.494 13.9368V14.6764C94.3355 14.7052 94.1723 14.7197 94.009 14.7197C93.0197 14.7197 92.6258 14.3739 92.6258 13.5046V10.9593H91.9103V10.2101H92.6258V9.06712H93.5143V9.07192Z" fill="white"/>
<path d="M95.7042 8.43799H96.5831V10.9209H96.6551C96.8952 10.3878 97.4475 10.066 98.0286 10.1141C98.8451 10.0708 99.5462 10.6952 99.5894 11.5164C99.5942 11.6076 99.5894 11.7037 99.5798 11.7949V14.7004H98.6914V12.011C98.6914 11.2907 98.3552 10.9257 97.7309 10.9257C97.1498 10.8777 96.6455 11.3099 96.5975 11.8862C96.5927 11.9438 96.5975 12.0062 96.5975 12.0639V14.6956H95.709V8.43319L95.7042 8.43799Z" fill="white"/>
<path d="M104.762 13.4806C104.512 14.3307 103.691 14.8781 102.812 14.7821C101.683 14.8109 100.742 13.9224 100.713 12.7939C100.713 12.6834 100.713 12.5729 100.732 12.4625C100.579 11.3243 101.376 10.2822 102.514 10.1285C102.61 10.1141 102.711 10.1093 102.807 10.1093C104.061 10.1093 104.815 10.9641 104.815 12.3808V12.693H101.635V12.741C101.583 13.3942 102.068 13.9705 102.721 14.0281C102.759 14.0281 102.798 14.0281 102.836 14.0281C103.273 14.0809 103.696 13.8648 103.907 13.4806H104.762ZM101.635 12.0303H103.912C103.955 11.4299 103.508 10.9113 102.908 10.8681C102.874 10.8681 102.836 10.8681 102.802 10.8681C102.168 10.8584 101.645 11.3675 101.635 12.0062C101.635 12.0159 101.635 12.0255 101.635 12.0351V12.0303Z" fill="white"/>
</g>
<defs>
<clipPath id="clip0_276_938">
<rect width="119.664" height="40" fill="white"/>
</clipPath>
</defs>
</svg>
