<svg viewBox="0 0 136 40" fill="none" xmlns="http://www.w3.org/2000/svg">
<g clip-path="url(#clip0_276_922)">
<path d="M130.407 0H5.40784C2.64675 0 0.408447 2.23831 0.408447 4.9994V35.0006C0.408447 37.7617 2.64675 40 5.40784 40H130.407C133.168 40 135.407 37.7617 135.407 35.0006V4.9994C135.407 2.23831 133.168 0 130.407 0Z" fill="black"/>
<path d="M130.407 0.802017C132.722 0.802017 134.609 2.6846 134.609 5.0042V35.0054C134.609 37.3202 132.727 39.2076 130.407 39.2076H5.40784C3.09304 39.2076 1.20566 37.325 1.20566 35.0054V4.9994C1.21046 2.6846 3.09304 0.802017 5.40784 0.802017H130.407ZM130.407 0H5.40784C2.66082 0 0.408447 2.25237 0.408447 4.9994V35.0006C0.408447 37.7524 2.66082 40 5.40784 40H130.407C133.159 40 135.407 37.7476 135.407 35.0006V4.9994C135.407 2.25237 133.159 0 130.407 0Z" fill="#A6A6A6"/>
<path d="M47.8282 10.2437C47.8282 11.0794 47.5785 11.7469 47.0839 12.2464C46.522 12.8371 45.792 13.1348 44.8795 13.1348C43.967 13.1348 43.2707 12.8323 42.6656 12.232C42.0604 11.6268 41.7627 10.8873 41.7627 10.0036C41.7627 9.11994 42.0653 8.37556 42.6656 7.77525C43.2707 7.17013 44.0055 6.87238 44.8795 6.87238C45.3213 6.87238 45.7392 6.94922 46.1282 7.1077C46.522 7.26618 46.8389 7.48229 47.0935 7.77044L46.5412 8.32273C46.3587 8.10181 46.1186 7.92412 45.8256 7.79926C45.5327 7.67439 45.2205 7.61196 44.8843 7.61196C44.2312 7.61196 43.6789 7.83768 43.2275 8.28911C42.7808 8.74535 42.5551 9.32165 42.5551 10.0084C42.5551 10.6952 42.7808 11.2667 43.2275 11.7277C43.6789 12.1791 44.2312 12.4049 44.8843 12.4049C45.4798 12.4049 45.9793 12.2368 46.3779 11.9006C46.7765 11.5644 47.0022 11.1034 47.0646 10.5175H44.8843V9.7971H47.7898C47.8186 9.95558 47.833 10.1045 47.833 10.2485L47.8282 10.2437Z" fill="white" stroke="white" stroke-width="0.201705" stroke-miterlimit="10"/>
<path d="M52.4339 7.00204V7.74163H49.7013V9.64342H52.1649V10.3638H49.7013V12.2656H52.4339V13.0052H48.9329V7.00685H52.4339V7.00204Z" fill="white" stroke="white" stroke-width="0.201705" stroke-miterlimit="10"/>
<path d="M55.69 7.73682V13.0004H54.9168V7.73682H53.2407V6.99724H57.3661V7.73682H55.69Z" fill="white" stroke="white" stroke-width="0.201705" stroke-miterlimit="10"/>
<path d="M61.1168 13.0004H60.3484V7.00204H61.1168V13.0004Z" fill="white" stroke="white" stroke-width="0.201705" stroke-miterlimit="10"/>
<path d="M64.5361 7.73682V13.0004H63.7629V7.73682H62.0868V6.99724H66.2121V7.73682H64.5361Z" fill="white" stroke="white" stroke-width="0.201705" stroke-miterlimit="10"/>
<path d="M74.8999 9.9988C74.8999 10.8873 74.6022 11.6316 74.0115 12.2272C73.4111 12.8323 72.6812 13.13 71.8167 13.13C70.9523 13.13 70.2127 12.8275 69.622 12.2272C69.0313 11.6316 68.7335 10.8873 68.7335 9.9988C68.7335 9.11033 69.0313 8.36595 69.622 7.77044C70.2127 7.16532 70.9475 6.86757 71.8167 6.86757C72.686 6.86757 73.4208 7.17013 74.0115 7.78004C74.6022 8.37555 74.8999 9.11994 74.8999 9.9988ZM69.5211 9.9988C69.5211 10.6904 69.7372 11.2667 70.1743 11.7181C70.6161 12.1695 71.1636 12.3952 71.8167 12.3952C72.4699 12.3952 73.0173 12.1695 73.4496 11.7181C73.8914 11.2715 74.1123 10.7 74.1123 9.9988C74.1123 9.29763 73.8914 8.72614 73.4496 8.2795C73.0125 7.82807 72.4699 7.60235 71.8167 7.60235C71.1636 7.60235 70.6161 7.82807 70.1743 8.2795C69.7372 8.73094 69.5211 9.30724 69.5211 9.9988Z" fill="white" stroke="white" stroke-width="0.201705" stroke-miterlimit="10"/>
<path d="M76.7536 13.0004H75.9852V7.00204H76.9217L79.8368 11.6701H79.8705L79.8368 10.5127V7.00204H80.61V13.0004H79.8032L76.7536 8.10662H76.72L76.7536 9.26402V13.0004Z" fill="white" stroke="white" stroke-width="0.201705" stroke-miterlimit="10"/>
<path d="M68.5415 21.7505C66.1882 21.7505 64.2721 23.537 64.2721 26.0055C64.2721 28.474 66.1882 30.2605 68.5415 30.2605C70.8947 30.2605 72.8109 28.4548 72.8109 26.0055C72.8109 23.5563 70.8947 21.7505 68.5415 21.7505ZM68.5415 28.5797C67.2544 28.5797 66.1402 27.5183 66.1402 26.0007C66.1402 24.4831 67.2496 23.4218 68.5415 23.4218C69.8333 23.4218 70.9427 24.4687 70.9427 26.0007C70.9427 27.5327 69.8333 28.5797 68.5415 28.5797ZM59.2294 21.7505C56.8762 21.7505 54.96 23.537 54.96 26.0055C54.96 28.474 56.8762 30.2605 59.2294 30.2605C61.5827 30.2605 63.4989 28.4548 63.4989 26.0055C63.4989 23.5563 61.5827 21.7505 59.2294 21.7505ZM59.2294 28.5797C57.9424 28.5797 56.8282 27.5183 56.8282 26.0007C56.8282 24.4831 57.9376 23.4218 59.2294 23.4218C60.5213 23.4218 61.6307 24.4687 61.6307 26.0007C61.6307 27.5327 60.5213 28.5797 59.2294 28.5797ZM48.1501 23.052V24.8577H52.4675C52.3379 25.8711 52.0017 26.6154 51.483 27.1293C50.8539 27.7584 49.8742 28.45 48.1501 28.45C45.4895 28.45 43.4148 26.3081 43.4148 23.6475C43.4148 20.9869 45.4943 18.845 48.1501 18.845C49.586 18.845 50.633 19.4069 51.4062 20.1321L52.6788 18.8594C51.5983 17.8269 50.1671 17.0393 48.1501 17.0393C44.5098 17.0393 41.4458 20.0024 41.4458 23.6427C41.4458 27.283 44.505 30.2461 48.1501 30.2461C50.1143 30.2461 51.5983 29.6026 52.7557 28.3924C53.9467 27.2013 54.3165 25.5253 54.3165 24.171C54.3165 23.7532 54.2829 23.3641 54.2204 23.0424H48.1453L48.1501 23.052ZM93.4568 24.4543C93.1014 23.5034 92.0209 21.7457 89.8165 21.7457C87.6122 21.7457 85.8064 23.4698 85.8064 26.0007C85.8064 28.3828 87.6122 30.2557 90.0278 30.2557C91.9776 30.2557 93.1062 29.0647 93.5721 28.3732L92.1217 27.4079C91.6367 28.1186 90.9787 28.5845 90.0278 28.5845C89.0769 28.5845 88.3998 28.1474 87.9676 27.2974L93.6537 24.9442L93.4616 24.4591L93.4568 24.4543ZM87.6554 25.8711C87.6074 24.2286 88.9281 23.3882 89.879 23.3882C90.6185 23.3882 91.2477 23.758 91.459 24.291L87.6554 25.8711ZM83.0306 29.9964H84.8988V17.4955H83.0306V29.9964ZM79.9714 22.6966H79.909C79.4912 22.1971 78.6843 21.7457 77.671 21.7457C75.5435 21.7457 73.5937 23.6139 73.5937 26.0151C73.5937 28.4164 75.5435 30.2509 77.671 30.2509C78.6843 30.2509 79.4912 29.7995 79.909 29.2856H79.9714V29.8955C79.9714 31.5236 79.1022 32.3928 77.6998 32.3928C76.5568 32.3928 75.8461 31.5716 75.5579 30.8801L73.9299 31.5572C74.3957 32.6858 75.6396 34.0689 77.6998 34.0689C79.8898 34.0689 81.7435 32.7818 81.7435 29.6362V22.0002H79.9714V22.6918V22.6966ZM77.8295 28.5749C76.5424 28.5749 75.4619 27.4943 75.4619 26.0151C75.4619 24.536 76.5424 23.4218 77.8295 23.4218C79.1166 23.4218 80.1011 24.5167 80.1011 26.0151C80.1011 27.5135 79.1022 28.5749 77.8295 28.5749ZM102.212 17.4907H97.7406V29.9916H99.604V25.2563H102.212C104.282 25.2563 106.313 23.758 106.313 21.3759C106.313 18.9939 104.282 17.4955 102.212 17.4955V17.4907ZM102.26 23.5178H99.604V19.234H102.26C103.653 19.234 104.445 20.3914 104.445 21.3759C104.445 22.3604 103.653 23.5178 102.26 23.5178ZM113.791 21.7217C112.441 21.7217 111.039 22.3172 110.462 23.6379L112.119 24.3295C112.475 23.6379 113.133 23.4122 113.824 23.4122C114.789 23.4122 115.769 23.9933 115.788 25.021V25.1507C115.452 24.9586 114.727 24.6704 113.843 24.6704C112.057 24.6704 110.242 25.6501 110.242 27.4847C110.242 29.156 111.706 30.2365 113.344 30.2365C114.597 30.2365 115.289 29.6746 115.726 29.0119H115.788V29.9772H117.589V25.1843C117.589 22.9655 115.932 21.7265 113.795 21.7265L113.791 21.7217ZM113.565 28.5749C112.955 28.5749 112.1 28.2675 112.1 27.5135C112.1 26.5482 113.161 26.1784 114.079 26.1784C114.9 26.1784 115.284 26.3561 115.784 26.5962C115.64 27.7536 114.641 28.5749 113.565 28.5749ZM124.15 21.9954L122.012 27.4175H121.95L119.731 21.9954H117.719L121.047 29.569L119.15 33.7808H121.095L126.224 21.9906H124.15V21.9954ZM107.341 29.9916H109.204V17.4907H107.341V29.9916Z" fill="white"/>
<path d="M21.1264 19.4261L10.4792 30.7264C10.4792 30.7264 10.4792 30.7264 10.4792 30.7312C10.8058 31.9558 11.9248 32.8635 13.2551 32.8635C13.7882 32.8635 14.2876 32.7194 14.715 32.4697L14.7487 32.4505L26.7309 25.5349L21.1216 19.4309L21.1264 19.4261Z" fill="#EA4335"/>
<path d="M31.8985 17.5003H31.8889L26.7166 14.4939L20.8864 19.6806L26.7358 25.5301L31.8841 22.5621C32.7869 22.0771 33.3969 21.1262 33.3969 20.0264C33.3969 18.9266 32.7917 17.9902 31.8985 17.5003Z" fill="#FBBC04"/>
<path d="M10.4794 9.27842C10.4169 9.51374 10.3833 9.76347 10.3833 10.018V29.9868C10.3833 30.2413 10.4169 30.491 10.4794 30.7264L21.4915 19.7142L10.4794 9.27842Z" fill="#4285F4"/>
<path d="M21.2032 20.0024L26.7117 14.4939L14.7439 7.55433C14.3068 7.29499 13.8026 7.14131 13.2599 7.14131C11.9296 7.14131 10.8058 8.04898 10.4792 9.27362L21.2032 19.9976V20.0024Z" fill="#34A853"/>
</g>
<defs>
<clipPath id="clip0_276_922">
<rect width="134.998" height="40" fill="white" transform="translate(0.408447)"/>
</clipPath>
</defs>
</svg>
